<svg viewBox="0 0 12.02 12" xmlns="http://www.w3.org/2000/svg"><path d="m12 6.5a1.44 1.44 0 0 0 -.39-1 1.44 1.44 0 0 0 .39-1 1.5 1.5 0 0 0 -1.48-1.5h-3.95l.37-1.08a1.49 1.49 0 0 0 -1-1.86 1.7 1.7 0 0 0 -1.94.94l-1.86 3h-2.14v8h2.38.12 7a1.5 1.5 0 0 0 1.5-1.5 1.46 1.46 0 0 0 -.14-.63 1.49 1.49 0 0 0 .89-1.37 1.54 1.54 0 0 0 -.27-.87 1.48 1.48 0 0 0 .52-1.13zm-11-1.5h1v6h-1zm8.52 6h-6.52v-6.48l1.84-3c.32-.52.57-.52.66-.52h.14a.5.5 0 0 1 .35.6l-.59 1.74a.52.52 0 0 0 .07.45.49.49 0 0 0 .41.21h4.64a.5.5 0 0 1 0 1h-1.52v1h1.5a.5.5 0 0 1 0 1h-1.5v1h1.25a.5.5 0 0 1 0 1h-1.25v1h.5a.5.5 0 0 1 0 1z" fill="#fff"/></svg>