<svg viewBox="0 0 22 24" xmlns="http://www.w3.org/2000/svg"><g fill="#fff" opacity=".5"><path d="m8.16 21.94a3 3 0 0 0 5.68 0c-.84.06-1.84.06-2.84.06s-2 0-2.84-.06z"/><path d="m13.94 4.37a4.07 4.07 0 0 1 .49-1.93 8.35 8.35 0 0 0 -1.43-.32v-.12a2 2 0 0 0 -4 0v.12c-2.32.31-4 1.3-4 3.88 0 10-5 8-5 14a50.09 50.09 0 0 0 11 1 50.09 50.09 0 0 0 11-1c0-5.4-4.14-4.28-4.88-11.56a4.19 4.19 0 0 1 -3.18-4.07z"/></g><path d="m18.15 1.56a2.81 2.81 0 0 0 -1.15 5.38 2.91 2.91 0 0 0 1.14.24 2.81 2.81 0 0 0 0-5.62z" fill="#ff0030"/></svg>