<svg viewBox="0 0 114.31 114.31" xmlns="http://www.w3.org/2000/svg"><g fill="#fff"><path d="m80.83 0h-47.35l-33.48 33.48v47.35l33.48 33.48h47.35l33.48-33.48v-47.35zm8.73 100.58-40.2 10.19-35.63-21.21-10.2-40.2 21.22-35.63 40.25-10.2 35.63 21.22 10.14 40.25z" opacity=".9"/><path d="m65 3.53-40.2 10.2-21.27 35.63 10.2 40.2 35.63 21.21 40.2-10.19 21.21-35.58-10.19-40.2zm13.84 96.17-36.44 2.88-27.8-23.74-2.87-36.44 23.74-27.8 36.44-2.87 27.79 23.74 2.88 36.44z" opacity=".25"/><path d="m71.91 11.73-36.44 2.87-23.74 27.8 2.87 36.44 27.8 23.74 36.44-2.88 23.74-27.79-2.88-36.44zm17.09 71.81-28 14.81-30.23-9.35-14.77-28 9.33-30.27 27.94-14.73 30.27 9.33 14.81 28z" opacity=".5"/><path d="m53.27 16-28 14.82-9.27 30.18 14.77 28 30.23 9.35 28-14.81 9.32-30.27-14.81-28zm39.34 46.31-14 23.56-26.61 6.74-23.56-14-6.74-26.61 14-23.56 26.61-6.74 23.56 14z" opacity=".75"/></g></svg>