<svg viewBox="0 0 12 14.09" xmlns="http://www.w3.org/2000/svg"><g fill="#fff"><path d="m10.87.81a23.44 23.44 0 0 0 -4.87-.81 23.44 23.44 0 0 0 -4.87.81 1.52 1.52 0 0 0 -1.13 1.46v3.23a9.09 9.09 0 0 0 2.89 6.05 16.76 16.76 0 0 0 2.84 2.37l.27.17.27-.17a17.32 17.32 0 0 0 2.84-2.4c1.42-1.52 2.89-3.58 2.89-6.02v-3.23a1.52 1.52 0 0 0 -1.13-1.46zm.13 4.69c0 2-1.28 3.93-2.61 5.33a13.46 13.46 0 0 1 -2.39 2 12.65 12.65 0 0 1 -2.39-2 8.19 8.19 0 0 1 -2.61-5.33v-3.23a.49.49 0 0 1 .38-.49 24.09 24.09 0 0 1 4.62-.78 24.22 24.22 0 0 1 4.62.78.5.5 0 0 1 .38.49z"/><path d="m8.99 3.66-3.41 3.42-1.82-1.82-.74.75 2.56 2.55 4.15-4.15z"/></g></svg>