<svg viewBox="0 0 86.06 14.06" xmlns="http://www.w3.org/2000/svg"><g fill="#edbf69"><path d="m79.05 0-.46 1.09-1.59 3.77-5 .54 3.71 3.5-1.01 5.16 4.35-2.65 4.35 2.65-1.05-5.16 3.71-3.5-5-.54zm0 2.57 1.36 3.22 3.39.37-2.54 2.39.74 3.45-2.91-1.78-2.95 1.78.71-3.47-2.54-2.37 3.39-.37z"/><path d="m7.01 0-.46 1.09-1.59 3.77-4.96.54 3.71 3.5-1.05 5.16 4.35-2.65 4.35 2.65-1.06-5.16 3.71-3.5-4.96-.54z"/><path d="m25.02 0-.46 1.09-1.59 3.77-4.96.54 3.71 3.5-1.05 5.16 4.35-2.65 4.35 2.65-1.05-5.16 3.7-3.5-4.95-.54z"/><path d="m43.03 0-.46 1.09-1.59 3.77-4.96.54 3.71 3.5-1.05 5.16 4.35-2.65 4.35 2.65-1.05-5.16 3.7-3.5-4.95-.54z"/><path d="m61.04 0-.46 1.09-1.58 3.77-4.97.54 3.72 3.5-1.06 5.16 4.35-2.65 4.35 2.65-1.05-5.16 3.71-3.5-4.96-.54z"/></g></svg>