<svg viewBox="0 0 83.09 103.86" xmlns="http://www.w3.org/2000/svg"><path d="m83.09 26.57v-5.8l-41.55-20.77h-.06l-2.81 1.44-38.67 19.33v14q0 1 0 1.95c0 1.29.1 2.58.2 3.87.06.64.12 1.28.19 1.92s.17 1.47.27 2.2q.24 1.77.57 3.51c.12.63.25 1.26.39 1.88.38 1.74.85 3.46 1.38 5.15l.3 1c.46 1.46 1 2.91 1.51 4.34.15.41.31.81.47 1.21.27.66.55 1.31.83 2s.55 1.2.89 1.88q1.16 2.41 2.47 4.75c.29.51.59 1 .9 1.54q1.42 2.37 3.05 4.64a72 72 0 0 0 11.21 12.45l1.5 1.31 7.71 6.75 7.7 6.74 4.23-3.7-4.23-2.1v-10.53l11.89 5.92 4.23-3.69-16.12-8v-10.57l23.25 11.59q1.77-2 3.39-4.11l-26.64-13.28v-10.53l31.92 15.91c.86-1.5 1.68-3 2.43-4.59l-34.35-17.12v-10.53l37.9 18.89q.82-2.51 1.47-5.07l-39.37-19.62v-10.54l41.11 20.5c.2-1.86.34-3.73.4-5.61l-41.51-20.69v-10.53z" fill="#fff"/></svg>