<svg viewBox="0 0 80.07 49.64" xmlns="http://www.w3.org/2000/svg"><g fill="#00a8e1"><path d="m72.31 39.75c-8.76 6.46-21.46 9.89-32.39 9.89a58.65 58.65 0 0 1 -39.57-15.07c-.82-.74-.09-1.75.9-1.18a79.69 79.69 0 0 0 39.59 10.49 78.69 78.69 0 0 0 30.16-6.17c1.52-.63 2.76.93 1.31 2.04z"/><path d="m76 35.64c-1.12-1.43-7.4-.68-10.23-.34-.86.1-1-.64-.22-1.18 5-3.52 13.23-2.5 14.18-1.32s-.25 9.41-5 13.34c-.72.6-1.41.28-1.09-.52 1.07-2.69 3.44-8.62 2.36-9.98z"/><path d="m10.77 28.73a1.1 1.1 0 0 1 -1.11-1.35l1-5.77a4.67 4.67 0 0 1 -1.75 1.14 6.88 6.88 0 0 1 -2.55.44 6.71 6.71 0 0 1 -2.93-.61 5.74 5.74 0 0 1 -2.12-1.67 6 6 0 0 1 -1.12-2.55 8.45 8.45 0 0 1 0-3.25 10.17 10.17 0 0 1 1.1-3.18 9.77 9.77 0 0 1 2-2.55 8.74 8.74 0 0 1 2.62-1.69 8.21 8.21 0 0 1 3.09-.6 6.71 6.71 0 0 1 1.74.2 4.21 4.21 0 0 1 1.2.5 2.71 2.71 0 0 1 .73.61 1.86 1.86 0 0 1 .33.6v-.17a1.67 1.67 0 0 1 1.59-1.35h1.79a1.1 1.1 0 0 1 1.11 1.35l-3.22 18.55a1.67 1.67 0 0 1 -1.58 1.35zm-5.77-13.59a4.48 4.48 0 0 0 0 1.67 2.79 2.79 0 0 0 .48 1.19 2.51 2.51 0 0 0 1 .73 3.31 3.31 0 0 0 1.26.27 4.06 4.06 0 0 0 1.36-.24 3.77 3.77 0 0 0 1.24-.76 4.48 4.48 0 0 0 1-1.2 5.34 5.34 0 0 0 .57-1.69 4.28 4.28 0 0 0 0-1.67 2.77 2.77 0 0 0 -.55-1.2 2.47 2.47 0 0 0 -1-.71 3.54 3.54 0 0 0 -1.27-.23 4.27 4.27 0 0 0 -1.36.23 4.16 4.16 0 0 0 -1.24.71 4.3 4.3 0 0 0 -1 1.2 5.06 5.06 0 0 0 -.49 1.7z"/><path d="m29.13 22.85a3.29 3.29 0 0 1 0-.73c0-.34.08-.62.12-.82a4.54 4.54 0 0 1 -2 1.44 7 7 0 0 1 -2.41.45 5.6 5.6 0 0 1 -2.41-.48 4.17 4.17 0 0 1 -1.61-1.3 4.54 4.54 0 0 1 -.82-1.91 6.49 6.49 0 0 1 0-2.32l1.47-8.37a1.67 1.67 0 0 1 1.63-1.35h2a1.1 1.1 0 0 1 1.11 1.35l-1.3 7.38a2.63 2.63 0 0 0 .27 1.89 1.84 1.84 0 0 0 1.73.77 2.92 2.92 0 0 0 2-.72 3.22 3.22 0 0 0 1-1.91l1.3-7.41a1.68 1.68 0 0 1 1.59-1.35h2a1.1 1.1 0 0 1 1.2 1.35l-2 11.28c-.12.7-.21 1.31-.26 1.81s-.07.82-.07 1z"/><path d="m40.78 2.75a3.07 3.07 0 0 1 .41-1.06 3.33 3.33 0 0 1 .74-.88 3.46 3.46 0 0 1 1-.59 2.79 2.79 0 0 1 1.07-.22 2.24 2.24 0 0 1 1.84.81 2.26 2.26 0 0 1 .46 1.94 3.23 3.23 0 0 1 -1.14 2 3.25 3.25 0 0 1 -2.13.8 2.34 2.34 0 0 1 -1.78-.8 2.24 2.24 0 0 1 -.43-.89 2.73 2.73 0 0 1 -.04-1.11zm-2.9 18.75 2.24-12.69a1.67 1.67 0 0 1 1.58-1.35h2a1.1 1.1 0 0 1 1.11 1.35l-2.23 12.69a1.68 1.68 0 0 1 -1.58 1.35h-2a1.11 1.11 0 0 1 -1.12-1.35z"/><path d="m55.58 11.33a4 4 0 0 0 -1.42.25 3.86 3.86 0 0 0 -1.24.74 4.49 4.49 0 0 0 -1 1.21 5 5 0 0 0 -.57 1.64 3.81 3.81 0 0 0 0 1.62 3 3 0 0 0 .65 1.21 2.41 2.41 0 0 0 1 .74 3.9 3.9 0 0 0 3.63-.47 4.64 4.64 0 0 0 .78-.75 1.52 1.52 0 0 1 1.59-.52l1.56.5a1.21 1.21 0 0 1 .44 1.98c-.11.15-.22.31-.35.46a8.76 8.76 0 0 1 -1.83 1.7 10 10 0 0 1 -2.38 1.21 8.59 8.59 0 0 1 -2.87.46 7.79 7.79 0 0 1 -3.12-.6 6.18 6.18 0 0 1 -3.63-4.26 7.63 7.63 0 0 1 -.08-3.28 9.56 9.56 0 0 1 1.22-3.3 10.13 10.13 0 0 1 2.19-2.58 9.66 9.66 0 0 1 2.85-1.69 9.12 9.12 0 0 1 3.26-.6 7.75 7.75 0 0 1 2.74.45 5.67 5.67 0 0 1 2 1.19 5.11 5.11 0 0 1 1.22 1.71c.06.16.13.32.18.49a1.61 1.61 0 0 1 -1.14 1.93l-3 .85a3.25 3.25 0 0 0 -.23-.85 2.15 2.15 0 0 0 -.48-.74 2.08 2.08 0 0 0 -.81-.51 3.21 3.21 0 0 0 -1.16-.19z"/><path d="m75.33 14.82 3 5.92a1.59 1.59 0 0 1 -1.49 2.11h-2.45a1.1 1.1 0 0 1 -1-.6l-1.67-3.4a1.3 1.3 0 0 0 -2.08-.17 1.62 1.62 0 0 0 -.52.92l-.34 1.9a1.68 1.68 0 0 1 -1.58 1.35h-2a1.1 1.1 0 0 1 -1.11-1.35l3.46-19.72a1.68 1.68 0 0 1 1.58-1.35h2a1.1 1.1 0 0 1 1.11 1.35l-1.24 7.35c-.21 1.24 1.2 1.82 2.19.91l2.3-2.14a1.64 1.64 0 0 1 1.08-.44h2.42c1.17 0 1.54 1.4.58 2.26l-3.77 3.42a1.44 1.44 0 0 0 -.47 1.68z"/></g></svg>